<svg version="1.1" xmlns="http://www.w3.org/2000/svg" viewBox="0 0 843.5999908447266 398.4000091552732" width="843.5999908447266" height="398.4000091552732">
  <!-- svg-source:excalidraw -->
  
  <defs>
    <style class="style-fonts">
      @font-face {
        font-family: "Virgil";
        src: url("https://file%2B.vscode-resource.vscode-cdn.net/c%3A/Users/TK-LPT-885/.vscode/extensions/pomdtr.excalidraw-editor-3.5.1/public//dist/excalidraw-assets/Virgil.woff2");
      }
      @font-face {
        font-family: "Cascadia";
        src: url("https://file%2B.vscode-resource.vscode-cdn.net/c%3A/Users/TK-LPT-885/.vscode/extensions/pomdtr.excalidraw-editor-3.5.1/public//dist/excalidraw-assets/Cascadia.woff2");
      }
    </style>
  </defs>
  <g stroke-linecap="round" transform="translate(130 141.20001220703102) rotate(0 43.19999694824219 28.800003051757812)"><path d="M14.4 0 M14.4 0 C29.96 0, 45.52 0, 72 0 M14.4 0 C31.99 0, 49.59 0, 72 0 M72 0 C81.6 0, 86.4 4.8, 86.4 14.4 M72 0 C81.6 0, 86.4 4.8, 86.4 14.4 M86.4 14.4 C86.4 24.14, 86.4 33.88, 86.4 43.2 M86.4 14.4 C86.4 23.75, 86.4 33.11, 86.4 43.2 M86.4 43.2 C86.4 52.8, 81.6 57.6, 72 57.6 M86.4 43.2 C86.4 52.8, 81.6 57.6, 72 57.6 M72 57.6 C51.31 57.6, 30.63 57.6, 14.4 57.6 M72 57.6 C53.1 57.6, 34.21 57.6, 14.4 57.6 M14.4 57.6 C4.8 57.6, 0 52.8, 0 43.2 M14.4 57.6 C4.8 57.6, 0 52.8, 0 43.2 M0 43.2 C0 32.05, 0 20.91, 0 14.4 M0 43.2 C0 35.16, 0 27.12, 0 14.4 M0 14.4 C0 4.8, 4.8 0, 14.4 0 M0 14.4 C0 4.8, 4.8 0, 14.4 0" stroke="#364fc7" stroke-width="2" fill="none"></path></g><g transform="translate(155.20001220703125 157.50001525878884) rotate(0 17.999984741210938 12.5)"><text x="17.999984741210938" y="0" font-family="Virgil, Segoe UI Emoji" font-size="20px" fill="#364fc7" text-anchor="middle" style="white-space: pre;" direction="ltr" dominant-baseline="text-before-edge">New</text></g><g stroke-linecap="round" transform="translate(330.8000183105469 142.0000305175779) rotate(0 64.39999389648438 27.199996948242188)"><path d="M13.6 0 M13.6 0 C40.19 0, 66.78 0, 115.2 0 M13.6 0 C37.55 0, 61.5 0, 115.2 0 M115.2 0 C124.27 0, 128.8 4.53, 128.8 13.6 M115.2 0 C124.27 0, 128.8 4.53, 128.8 13.6 M128.8 13.6 C128.8 19.66, 128.8 25.71, 128.8 40.8 M128.8 13.6 C128.8 20.66, 128.8 27.73, 128.8 40.8 M128.8 40.8 C128.8 49.87, 124.27 54.4, 115.2 54.4 M128.8 40.8 C128.8 49.87, 124.27 54.4, 115.2 54.4 M115.2 54.4 C80.88 54.4, 46.55 54.4, 13.6 54.4 M115.2 54.4 C85.75 54.4, 56.29 54.4, 13.6 54.4 M13.6 54.4 C4.53 54.4, 0 49.87, 0 40.8 M13.6 54.4 C4.53 54.4, 0 49.87, 0 40.8 M0 40.8 C0 32.13, 0 23.46, 0 13.6 M0 40.8 C0 32.36, 0 23.92, 0 13.6 M0 13.6 C0 4.53, 4.53 0, 13.6 0 M0 13.6 C0 4.53, 4.53 0, 13.6 0" stroke="#364fc7" stroke-width="2" fill="none"></path></g><g transform="translate(353.55004119873047 156.70002746582009) rotate(0 41.64997100830078 12.5)"><text x="41.64997100830078" y="0" font-family="Virgil, Segoe UI Emoji" font-size="20px" fill="#364fc7" text-anchor="middle" style="white-space: pre;" direction="ltr" dominant-baseline="text-before-edge">Runnable</text></g><g stroke-linecap="round" transform="translate(560.4000549316406 10) rotate(0 55.199981689453125 34.79999542236328)"><path d="M17.4 0 M17.4 0 C38.95 0, 60.5 0, 93 0 M17.4 0 C37.49 0, 57.58 0, 93 0 M93 0 C104.6 0, 110.4 5.8, 110.4 17.4 M93 0 C104.6 0, 110.4 5.8, 110.4 17.4 M110.4 17.4 C110.4 24.77, 110.4 32.14, 110.4 52.2 M110.4 17.4 C110.4 25.88, 110.4 34.35, 110.4 52.2 M110.4 52.2 C110.4 63.8, 104.6 69.6, 93 69.6 M110.4 52.2 C110.4 63.8, 104.6 69.6, 93 69.6 M93 69.6 C66.07 69.6, 39.14 69.6, 17.4 69.6 M93 69.6 C69.73 69.6, 46.47 69.6, 17.4 69.6 M17.4 69.6 C5.8 69.6, 0 63.8, 0 52.2 M17.4 69.6 C5.8 69.6, 0 63.8, 0 52.2 M0 52.2 C0 40.98, 0 29.75, 0 17.4 M0 52.2 C0 43.43, 0 34.65, 0 17.4 M0 17.4 C0 5.8, 5.8 0, 17.4 0 M0 17.4 C0 5.8, 5.8 0, 17.4 0" stroke="#364fc7" stroke-width="2" fill="none"></path></g><g transform="translate(579.1100692749023 32.29999542236328) rotate(0 36.489967346191406 12.5)"><text x="36.489967346191406" y="0" font-family="Virgil, Segoe UI Emoji" font-size="20px" fill="#364fc7" text-anchor="middle" style="white-space: pre;" direction="ltr" dominant-baseline="text-before-edge">Blocked</text></g><g stroke-linecap="round" transform="translate(617.1999206542969 144.39999389648415) rotate(0 49.600006103515625 33.19999694824219)"><path d="M16.6 0 M16.6 0 C35.26 0, 53.92 0, 82.6 0 M16.6 0 C40.54 0, 64.48 0, 82.6 0 M82.6 0 C93.67 0, 99.2 5.53, 99.2 16.6 M82.6 0 C93.67 0, 99.2 5.53, 99.2 16.6 M99.2 16.6 C99.2 25.84, 99.2 35.07, 99.2 49.8 M99.2 16.6 C99.2 25.13, 99.2 33.66, 99.2 49.8 M99.2 49.8 C99.2 60.87, 93.67 66.4, 82.6 66.4 M99.2 49.8 C99.2 60.87, 93.67 66.4, 82.6 66.4 M82.6 66.4 C64.57 66.4, 46.53 66.4, 16.6 66.4 M82.6 66.4 C61.17 66.4, 39.73 66.4, 16.6 66.4 M16.6 66.4 C5.53 66.4, 0 60.87, 0 49.8 M16.6 66.4 C5.53 66.4, 0 60.87, 0 49.8 M0 49.8 C0 38.95, 0 28.1, 0 16.6 M0 49.8 C0 37.63, 0 25.46, 0 16.6 M0 16.6 C0 5.53, 5.53 0, 16.6 0 M0 16.6 C0 5.53, 5.53 0, 16.6 0" stroke="#364fc7" stroke-width="2" fill="none"></path></g><g transform="translate(632.9599533081055 165.09999084472634) rotate(0 33.83997344970703 12.5)"><text x="33.83997344970703" y="0" font-family="Virgil, Segoe UI Emoji" font-size="20px" fill="#364fc7" text-anchor="middle" style="white-space: pre;" direction="ltr" dominant-baseline="text-before-edge">Waiting</text></g><g stroke-linecap="round" transform="translate(622.7999572753906 293.19998168945267) rotate(0 51.20001220703125 32.00001525878906)"><path d="M16 0 M16 0 C43.99 0, 71.99 0, 86.4 0 M16 0 C39.98 0, 63.96 0, 86.4 0 M86.4 0 C97.07 0, 102.4 5.33, 102.4 16 M86.4 0 C97.07 0, 102.4 5.33, 102.4 16 M102.4 16 C102.4 24.8, 102.4 33.6, 102.4 48 M102.4 16 C102.4 25.47, 102.4 34.94, 102.4 48 M102.4 48 C102.4 58.67, 97.07 64, 86.4 64 M102.4 48 C102.4 58.67, 97.07 64, 86.4 64 M86.4 64 C69.96 64, 53.51 64, 16 64 M86.4 64 C69.19 64, 51.98 64, 16 64 M16 64 C5.33 64, 0 58.67, 0 48 M16 64 C5.33 64, 0 58.67, 0 48 M0 48 C0 40.07, 0 32.13, 0 16 M0 48 C0 38.59, 0 29.18, 0 16 M0 16 C0 5.33, 5.33 0, 16 0 M0 16 C0 5.33, 5.33 0, 16 0" stroke="#364fc7" stroke-width="2" fill="none"></path></g><g transform="translate(640.1599960327148 300.19999694824173) rotate(0 33.83997344970703 25)"><text x="33.83997344970703" y="0" font-family="Virgil, Segoe UI Emoji" font-size="20px" fill="#364fc7" text-anchor="middle" style="white-space: pre;" direction="ltr" dominant-baseline="text-before-edge">Timed </text><text x="33.83997344970703" y="25" font-family="Virgil, Segoe UI Emoji" font-size="20px" fill="#364fc7" text-anchor="middle" style="white-space: pre;" direction="ltr" dominant-baseline="text-before-edge">Waiting</text></g><g stroke-linecap="round" transform="translate(333.9999694824219 309.2000122070308) rotate(0 70.39999389648438 34.80000305175781)"><path d="M17.4 0 M17.4 0 C55.02 0, 92.64 0, 123.4 0 M17.4 0 C40.62 0, 63.84 0, 123.4 0 M123.4 0 C135 0, 140.8 5.8, 140.8 17.4 M123.4 0 C135 0, 140.8 5.8, 140.8 17.4 M140.8 17.4 C140.8 26.46, 140.8 35.52, 140.8 52.2 M140.8 17.4 C140.8 26.29, 140.8 35.17, 140.8 52.2 M140.8 52.2 C140.8 63.8, 135 69.6, 123.4 69.6 M140.8 52.2 C140.8 63.8, 135 69.6, 123.4 69.6 M123.4 69.6 C91.77 69.6, 60.13 69.6, 17.4 69.6 M123.4 69.6 C99.73 69.6, 76.06 69.6, 17.4 69.6 M17.4 69.6 C5.8 69.6, 0 63.8, 0 52.2 M17.4 69.6 C5.8 69.6, 0 63.8, 0 52.2 M0 52.2 C0 41.2, 0 30.19, 0 17.4 M0 52.2 C0 44.22, 0 36.25, 0 17.4 M0 17.4 C0 5.8, 5.8 0, 17.4 0 M0 17.4 C0 5.8, 5.8 0, 17.4 0" stroke="#364fc7" stroke-width="2" fill="none"></path></g><g transform="translate(349.9200134277344 331.5000152587886) rotate(0 54.479949951171875 12.5)"><text x="54.479949951171875" y="0" font-family="Virgil, Segoe UI Emoji" font-size="20px" fill="#364fc7" text-anchor="middle" style="white-space: pre;" direction="ltr" dominant-baseline="text-before-edge">Terminated</text></g><g transform="translate(10 137.32417932676503) rotate(0 11.539817810058594 26.037922543648733)"><text x="0" y="0" font-family="Virgil, Segoe UI Emoji" font-size="41.66067606983802px" fill="#364fc7" text-anchor="start" style="white-space: pre;" direction="ltr" dominant-baseline="text-before-edge">o</text></g><g stroke-linecap="round"><g stroke-opacity="0.7" fill-opacity="0.7" transform="translate(41.20001220703125 165.20001220703102) rotate(0 39.59999084472656 0.399993896484375)"><path d="M0 0 C13.2 0.13, 66 0.67, 79.2 0.8 M0 0 C13.2 0.13, 66 0.67, 79.2 0.8" stroke="#364fc7" stroke-width="1" fill="none"></path></g><g stroke-opacity="0.7" fill-opacity="0.7" transform="translate(41.20001220703125 165.20001220703102) rotate(0 39.59999084472656 0.399993896484375)"><path d="M50.91 10.78 C61.16 7.16, 71.4 3.55, 79.2 0.8 M50.91 10.78 C61.16 7.16, 71.42 3.54, 79.2 0.8" stroke="#364fc7" stroke-width="1" fill="none"></path></g><g stroke-opacity="0.7" fill-opacity="0.7" transform="translate(41.20001220703125 165.20001220703102) rotate(0 39.59999084472656 0.399993896484375)"><path d="M51.11 -9.74 C61.29 -5.93, 71.46 -2.11, 79.2 0.8 M51.11 -9.74 C61.3 -5.92, 71.48 -2.1, 79.2 0.8" stroke="#364fc7" stroke-width="1" fill="none"></path></g></g><mask></mask><g stroke-linecap="round"><g stroke-opacity="0.7" fill-opacity="0.7" transform="translate(228.39999389648438 161.99999999999977) rotate(0 45.20001220703125 0.399993896484375)"><path d="M0 0 C15.07 0.13, 75.33 0.67, 90.4 0.8 M0 0 C15.07 0.13, 75.33 0.67, 90.4 0.8" stroke="#364fc7" stroke-width="1" fill="none"></path></g><g stroke-opacity="0.7" fill-opacity="0.7" transform="translate(228.39999389648438 161.99999999999977) rotate(0 45.20001220703125 0.399993896484375)"><path d="M62.12 10.81 C68.85 8.43, 75.58 6.05, 90.4 0.8 M62.12 10.81 C70.11 7.98, 78.1 5.15, 90.4 0.8" stroke="#364fc7" stroke-width="1" fill="none"></path></g><g stroke-opacity="0.7" fill-opacity="0.7" transform="translate(228.39999389648438 161.99999999999977) rotate(0 45.20001220703125 0.399993896484375)"><path d="M62.3 -9.71 C68.99 -7.21, 75.68 -4.71, 90.4 0.8 M62.3 -9.71 C70.24 -6.74, 78.18 -3.77, 90.4 0.8" stroke="#364fc7" stroke-width="1" fill="none"></path></g></g><mask></mask><g stroke-linecap="round"><g stroke-opacity="0.7" fill-opacity="0.7" transform="translate(428.0281058974001 133.20001220703102) rotate(0 64.18597451712026 -48.836181931572355)"><path d="M0 0 C21.4 -16.28, 106.98 -81.39, 128.37 -97.67 M0 0 C21.4 -16.28, 106.98 -81.39, 128.37 -97.67" stroke="#364fc7" stroke-width="1" fill="none"></path></g><g stroke-opacity="0.7" fill-opacity="0.7" transform="translate(428.0281058974001 133.20001220703102) rotate(0 64.18597451712026 -48.836181931572355)"><path d="M112.15 -72.44 C118.61 -82.48, 125.07 -92.53, 128.37 -97.67 M112.15 -72.44 C115.56 -77.75, 118.97 -83.05, 128.37 -97.67" stroke="#364fc7" stroke-width="1" fill="none"></path></g><g stroke-opacity="0.7" fill-opacity="0.7" transform="translate(428.0281058974001 133.20001220703102) rotate(0 64.18597451712026 -48.836181931572355)"><path d="M99.72 -88.77 C111.13 -92.31, 122.53 -95.86, 128.37 -97.67 M99.72 -88.77 C105.75 -90.64, 111.78 -92.51, 128.37 -97.67" stroke="#364fc7" stroke-width="1" fill="none"></path></g></g><mask></mask><g stroke-linecap="round"><g stroke-opacity="0.7" fill-opacity="0.7" transform="translate(547.9655199165925 82.63702705819583) rotate(0 -41.229800538170025 28.448567501249954)"><path d="M0 0 C-13.74 9.48, -68.72 47.41, -82.46 56.9 M0 0 C-13.74 9.48, -68.72 47.41, -82.46 56.9" stroke="#364fc7" stroke-width="1" fill="none"></path></g><g stroke-opacity="0.7" fill-opacity="0.7" transform="translate(547.9655199165925 82.63702705819583) rotate(0 -41.229800538170025 28.448567501249954)"><path d="M-65.08 32.44 C-68.67 37.49, -72.25 42.53, -82.46 56.9 M-65.08 32.44 C-68.83 37.72, -72.58 42.99, -82.46 56.9" stroke="#364fc7" stroke-width="1" fill="none"></path></g><g stroke-opacity="0.7" fill-opacity="0.7" transform="translate(547.9655199165925 82.63702705819583) rotate(0 -41.229800538170025 28.448567501249954)"><path d="M-53.43 49.33 C-59.42 50.89, -65.41 52.45, -82.46 56.9 M-53.43 49.33 C-59.69 50.96, -65.95 52.6, -82.46 56.9" stroke="#364fc7" stroke-width="1" fill="none"></path></g></g><mask></mask><g stroke-linecap="round"><g stroke-opacity="0.7" fill-opacity="0.7" transform="translate(494.0000305175781 103.6000061035154) rotate(0 0 0)"><path d="M0 0 C0 0, 0 0, 0 0 M0 0 C0 0, 0 0, 0 0" stroke="#364fc7" stroke-width="1" fill="none"></path></g><g stroke-opacity="0.7" fill-opacity="0.7" transform="translate(494.0000305175781 103.6000061035154) rotate(0 0 0)"><path d="MNaN NaN CNaN NaN, NaN NaN, NaN NaN MNaN NaN CNaN NaN, NaN NaN, NaN NaN" stroke="#364fc7" stroke-width="1" fill="none"></path></g><g stroke-opacity="0.7" fill-opacity="0.7" transform="translate(494.0000305175781 103.6000061035154) rotate(0 0 0)"><path d="MNaN NaN CNaN NaN, NaN NaN, NaN NaN MNaN NaN CNaN NaN, NaN NaN, NaN NaN" stroke="#364fc7" stroke-width="1" fill="none"></path></g></g><mask></mask><g stroke-linecap="round"><g stroke-opacity="0.7" fill-opacity="0.7" transform="translate(466.8000183105469 164.8462264675543) rotate(0 72.39996337890625 -0.7887455376933303)"><path d="M0 0 C24.13 -0.26, 120.67 -1.31, 144.8 -1.58 M0 0 C24.13 -0.26, 120.67 -1.31, 144.8 -1.58" stroke="#364fc7" stroke-width="1" fill="none"></path></g><g stroke-opacity="0.7" fill-opacity="0.7" transform="translate(466.8000183105469 164.8462264675543) rotate(0 72.39996337890625 -0.7887455376933303)"><path d="M116.72 8.99 C123.55 6.42, 130.38 3.85, 144.8 -1.58 M116.72 8.99 C125.49 5.69, 134.26 2.39, 144.8 -1.58" stroke="#364fc7" stroke-width="1" fill="none"></path></g><g stroke-opacity="0.7" fill-opacity="0.7" transform="translate(466.8000183105469 164.8462264675543) rotate(0 72.39996337890625 -0.7887455376933303)"><path d="M116.5 -11.53 C123.38 -9.11, 130.26 -6.69, 144.8 -1.58 M116.5 -11.53 C125.34 -8.42, 134.18 -5.31, 144.8 -1.58" stroke="#364fc7" stroke-width="1" fill="none"></path></g></g><mask></mask><g stroke-linecap="round"><g stroke-opacity="0.7" fill-opacity="0.7" transform="translate(609.1999206542969 194.78170268739245) rotate(0 -75.199951171875 -6.39085134369634)"><path d="M0 0 C-25.07 -2.13, -125.33 -10.65, -150.4 -12.78 M0 0 C-25.07 -2.13, -125.33 -10.65, -150.4 -12.78" stroke="#364fc7" stroke-width="1" fill="none"></path></g><g stroke-opacity="0.7" fill-opacity="0.7" transform="translate(609.1999206542969 194.78170268739245) rotate(0 -75.199951171875 -6.39085134369634)"><path d="M-121.44 -20.62 C-130.12 -18.27, -138.8 -15.92, -150.4 -12.78 M-121.44 -20.62 C-128.51 -18.7, -135.59 -16.79, -150.4 -12.78" stroke="#364fc7" stroke-width="1" fill="none"></path></g><g stroke-opacity="0.7" fill-opacity="0.7" transform="translate(609.1999206542969 194.78170268739245) rotate(0 -75.199951171875 -6.39085134369634)"><path d="M-123.18 -0.17 C-131.34 -3.95, -139.5 -7.73, -150.4 -12.78 M-123.18 -0.17 C-129.83 -3.25, -136.47 -6.33, -150.4 -12.78" stroke="#364fc7" stroke-width="1" fill="none"></path></g></g><mask></mask><g stroke-linecap="round"><g stroke-opacity="0.7" fill-opacity="0.7" transform="translate(374.8000183105469 208.39999389648415) rotate(0 0 48)"><path d="M0 0 C0 16, 0 80, 0 96 M0 0 C0 16, 0 80, 0 96" stroke="#364fc7" stroke-width="1" fill="none"></path></g><g stroke-opacity="0.7" fill-opacity="0.7" transform="translate(374.8000183105469 208.39999389648415) rotate(0 0 48)"><path d="M-10.26 67.81 C-7.55 75.26, -4.84 82.71, 0 96 M-10.26 67.81 C-7.9 74.3, -5.54 80.79, 0 96" stroke="#364fc7" stroke-width="1" fill="none"></path></g><g stroke-opacity="0.7" fill-opacity="0.7" transform="translate(374.8000183105469 208.39999389648415) rotate(0 0 48)"><path d="M10.26 67.81 C7.55 75.26, 4.84 82.71, 0 96 M10.26 67.81 C7.9 74.3, 5.54 80.79, 0 96" stroke="#364fc7" stroke-width="1" fill="none"></path></g></g><mask></mask><g stroke-linecap="round"><g stroke-opacity="0.7" fill-opacity="0.7" transform="translate(374.0000305175781 305.99999999999955) rotate(0 0.399993896484375 -4)"><path d="M0 0 C0.13 -1.33, 0.67 -6.67, 0.8 -8 M0 0 C0.13 -1.33, 0.67 -6.67, 0.8 -8" stroke="#364fc7" stroke-width="1" fill="none"></path></g><g stroke-opacity="0.7" fill-opacity="0.7" transform="translate(374.0000305175781 305.99999999999955) rotate(0 0.399993896484375 -4)"><path d="M1.79 -4.1 C1.57 -4.96, 1.35 -5.83, 0.8 -8 M1.79 -4.1 C1.53 -5.12, 1.28 -6.13, 0.8 -8" stroke="#364fc7" stroke-width="1" fill="none"></path></g><g stroke-opacity="0.7" fill-opacity="0.7" transform="translate(374.0000305175781 305.99999999999955) rotate(0 0.399993896484375 -4)"><path d="M-0.94 -4.38 C-0.56 -5.18, -0.17 -5.98, 0.8 -8 M-0.94 -4.38 C-0.49 -5.32, -0.04 -6.26, 0.8 -8" stroke="#364fc7" stroke-width="1" fill="none"></path></g></g><mask></mask><g stroke-linecap="round"><g stroke-opacity="0.7" fill-opacity="0.7" transform="translate(430.66692490446326 203.6000061035154) rotate(0 96.68806266084994 42.399993896484375)"><path d="M0 0 C32.23 14.13, 161.15 70.67, 193.38 84.8 M0 0 C32.23 14.13, 161.15 70.67, 193.38 84.8" stroke="#364fc7" stroke-width="1" fill="none"></path></g><g stroke-opacity="0.7" fill-opacity="0.7" transform="translate(430.66692490446326 203.6000061035154) rotate(0 96.68806266084994 42.399993896484375)"><path d="M163.44 82.88 C170.26 83.31, 177.08 83.75, 193.38 84.8 M163.44 82.88 C171.46 83.39, 179.49 83.91, 193.38 84.8" stroke="#364fc7" stroke-width="1" fill="none"></path></g><g stroke-opacity="0.7" fill-opacity="0.7" transform="translate(430.66692490446326 203.6000061035154) rotate(0 96.68806266084994 42.399993896484375)"><path d="M171.68 64.08 C176.62 68.8, 181.56 73.52, 193.38 84.8 M171.68 64.08 C177.5 69.64, 183.31 75.19, 193.38 84.8" stroke="#364fc7" stroke-width="1" fill="none"></path></g></g><mask></mask><g stroke-linecap="round"><g stroke-opacity="0.7" fill-opacity="0.7" transform="translate(616.3999328613281 317.10932517559286) rotate(0 -103.11320974373837 -53.55466258779654)"><path d="M0 0 C-34.37 -17.85, -171.86 -89.26, -206.23 -107.11 M0 0 C-34.37 -17.85, -171.86 -89.26, -206.23 -107.11" stroke="#364fc7" stroke-width="1" fill="none"></path></g><g stroke-opacity="0.7" fill-opacity="0.7" transform="translate(616.3999328613281 317.10932517559286) rotate(0 -103.11320974373837 -53.55466258779654)"><path d="M-176.48 -103.22 C-184.1 -104.22, -191.71 -105.21, -206.23 -107.11 M-176.48 -103.22 C-184.82 -104.31, -193.15 -105.4, -206.23 -107.11" stroke="#364fc7" stroke-width="1" fill="none"></path></g><g stroke-opacity="0.7" fill-opacity="0.7" transform="translate(616.3999328613281 317.10932517559286) rotate(0 -103.11320974373837 -53.55466258779654)"><path d="M-185.94 -85.01 C-191.13 -90.67, -196.33 -96.33, -206.23 -107.11 M-185.94 -85.01 C-191.62 -91.2, -197.31 -97.4, -206.23 -107.11" stroke="#364fc7" stroke-width="1" fill="none"></path></g></g><mask></mask><g stroke-opacity="0.5" fill-opacity="0.5" transform="translate(23.399993896484375 117.40002441406227) rotate(0 65.77994537353516 12.5)"><text x="0" y="0" font-family="Virgil, Segoe UI Emoji" font-size="20px" fill="#364fc7" text-anchor="start" style="white-space: pre;" direction="ltr" dominant-baseline="text-before-edge">new thread(r)</text></g><g stroke-opacity="0.5" fill-opacity="0.5" transform="translate(249.79998779296875 129.6000061035154) rotate(0 37.96996307373047 12.5)"><text x="0" y="0" font-family="Virgil, Segoe UI Emoji" font-size="20px" fill="#364fc7" text-anchor="start" style="white-space: pre;" direction="ltr" dominant-baseline="text-before-edge">.start()</text></g><g stroke-opacity="0.5" fill-opacity="0.5" transform="translate(287.29998779296875 242.6000061035154) rotate(0 31.199966430664062 25)"><text x="0" y="0" font-family="Virgil, Segoe UI Emoji" font-size="20px" fill="#364fc7" text-anchor="start" style="white-space: pre;" direction="ltr" dominant-baseline="text-before-edge">runs()</text><text x="0" y="25" font-family="Virgil, Segoe UI Emoji" font-size="20px" fill="#364fc7" text-anchor="start" style="white-space: pre;" direction="ltr" dominant-baseline="text-before-edge">retuns</text></g><g stroke-linecap="round" transform="translate(537.5999908447264 118.40000915527321) rotate(0 148.00000000000006 135)"><path d="M32 0 M32 0 C117.7 2.8, 200.97 -0.12, 264 0 M32 0 C124.96 1.73, 215.99 1.15, 264 0 M264 0 C286.9 1.29, 297.08 9.64, 296 32 M264 0 C284.6 0.41, 294.17 11.31, 296 32 M296 32 C294.25 94.21, 295.9 157.04, 296 238 M296 32 C295.05 99.69, 294.9 167.94, 296 238 M296 238 C297.09 259.45, 285.54 269.19, 264 270 M296 238 C294.18 257.04, 284.17 268.18, 264 270 M264 270 C184.28 268.75, 102.99 270.09, 32 270 M264 270 C214.35 268.91, 164.87 269.3, 32 270 M32 270 C11.6 268.13, 0.09 257.6, 0 238 M32 270 C11.16 270.5, -1.76 260.77, 0 238 M0 238 C-2.75 192.12, -0.12 146.97, 0 32 M0 238 C1.16 175.54, 0.77 113.91, 0 32 M0 32 C-1.76 10.21, 11.8 1.19, 32 0 M0 32 C1.21 12.27, 10.38 -0.54, 32 0" stroke="#a61e4d" stroke-width="1" fill="none"></path></g><g transform="translate(700.5999908447263 93.40000915527321) rotate(0 30.609970092773438 12.5)"><text x="0" y="0" font-family="Virgil, Segoe UI Emoji" font-size="20px" fill="#a61e4d" text-anchor="start" style="white-space: pre;" direction="ltr" dominant-baseline="text-before-edge">Joining</text></g></svg>