<svg version="1.1" xmlns="http://www.w3.org/2000/svg" viewBox="0 0 775.0000000000001 467" width="775.0000000000001" height="467">
  <!-- svg-source:excalidraw -->
  
  <defs>
    <style class="style-fonts">
      @font-face {
        font-family: "Virgil";
        src: url("https://file%2B.vscode-resource.vscode-cdn.net/c%3A/Users/TK-LPT-885/.vscode/extensions/pomdtr.excalidraw-editor-3.5.1/public//dist/excalidraw-assets/Virgil.woff2");
      }
      @font-face {
        font-family: "Cascadia";
        src: url("https://file%2B.vscode-resource.vscode-cdn.net/c%3A/Users/TK-LPT-885/.vscode/extensions/pomdtr.excalidraw-editor-3.5.1/public//dist/excalidraw-assets/Cascadia.woff2");
      }
    </style>
  </defs>
  <g stroke-linecap="round" transform="translate(10 36) rotate(0 264 141.5)"><path d="M32 0 M32 0 C128.34 -1.03, 225.17 -1.72, 496 0 M32 0 C159.61 1.08, 286.75 1.17, 496 0 M496 0 C516.46 1.24, 528.51 11.7, 528 32 M496 0 C517.04 -0.56, 527.92 12.45, 528 32 M528 32 C527.59 116.13, 528.27 201.9, 528 251 M528 32 C528.16 117.87, 526.62 204.33, 528 251 M528 251 C526.39 272.59, 518.18 283.45, 496 283 M528 251 C528.27 272.28, 517.43 281.62, 496 283 M496 283 C362.56 281.88, 229.28 281.83, 32 283 M496 283 C364.65 283, 232.87 282.54, 32 283 M32 283 C11.11 282.24, -1.09 272.6, 0 251 M32 283 C9.84 285.13, 1.08 270.94, 0 251 M0 251 C2.29 192.78, 2.41 133.16, 0 32 M0 251 C1.94 179.68, 0.65 107.47, 0 32 M0 32 C0.79 12.52, 8.74 1.09, 32 0 M0 32 C-0.07 10.66, 9.6 1.86, 32 0" stroke="#000000" stroke-width="1" fill="none"></path></g><g stroke-linecap="round"><g transform="translate(52.99999999999994 39) rotate(0 1.368614468886335 81.94094863641999)"><path d="M1.09 -1.12 C1.15 9.12, 1.28 33.95, 1.14 61.44 C1 88.92, 0.06 146.59, 0.22 163.79 M0.2 0.91 C0.06 10.78, -0.15 32.2, 0.27 59.54 C0.68 86.89, 2.88 147.85, 2.71 165" stroke="#000000" stroke-width="1" fill="none"></path></g></g><mask></mask><g stroke-linecap="round"><g transform="translate(55 202) rotate(0 48.657249318063265 -1.8305432271210975)"><path d="M0.33 -0.33 C16.52 -0.81, 79.94 -3.03, 96.06 -3.33 M-0.96 -1.55 C15.7 -1.82, 82.06 -1.56, 98.27 -1.96" stroke="#000000" stroke-width="1" fill="none"></path></g></g><mask></mask><g transform="translate(148 199) rotate(0 4.000049999999959 0.00005000000010113581)" stroke="none"><path fill="#000000" d="M 0.00,-2.08 Q 0.00,-2.08 1.72,-2.07 3.45,-2.06 5.72,-1.96 8.00,-1.86 8.29,-1.81 8.59,-1.76 8.86,-1.62 9.12,-1.48 9.33,-1.26 9.54,-1.04 9.67,-0.77 9.79,-0.49 9.82,-0.19 9.86,0.10 9.79,0.39 9.73,0.69 9.57,0.94 9.42,1.20 9.19,1.40 8.96,1.59 8.68,1.70 8.40,1.82 8.09,1.83 7.79,1.85 7.50,1.77 7.21,1.69 6.96,1.52 6.71,1.35 6.53,1.11 6.35,0.87 6.25,0.58 6.16,0.30 6.16,-0.00 6.16,-0.30 6.25,-0.58 6.35,-0.87 6.53,-1.11 6.71,-1.35 6.96,-1.52 7.21,-1.69 7.50,-1.77 7.79,-1.85 8.10,-1.83 8.40,-1.82 8.68,-1.70 8.96,-1.59 9.19,-1.40 9.42,-1.20 9.57,-0.94 9.73,-0.68 9.79,-0.39 9.86,-0.10 9.82,0.19 9.79,0.49 9.66,0.77 9.54,1.04 9.33,1.26 9.12,1.48 8.86,1.62 8.59,1.76 8.29,1.81 7.99,1.86 7.99,1.86 8.00,1.86 5.72,1.96 3.45,2.06 1.72,2.07 -0.00,2.08 -0.24,2.05 -0.49,2.02 -0.73,1.93 -0.96,1.84 -1.17,1.70 -1.38,1.55 -1.54,1.37 -1.71,1.18 -1.82,0.96 -1.94,0.73 -2.00,0.49 -2.06,0.25 -2.06,-0.00 -2.06,-0.25 -2.00,-0.49 -1.94,-0.73 -1.82,-0.96 -1.71,-1.18 -1.54,-1.37 -1.38,-1.55 -1.17,-1.70 -0.96,-1.84 -0.73,-1.93 -0.49,-2.02 -0.24,-2.05 0.00,-2.08 0.00,-2.08 L 0.00,-2.08 Z"></path></g><g stroke-linecap="round"><g transform="translate(157 201) rotate(0 -1.2301246730517619 -81.91350000984971)"><path d="M0.74 0.95 C0.35 -26.42, -1.55 -137.31, -2.17 -164.77 M-0.33 0.4 C-0.91 -26.79, -3.16 -136.51, -3.2 -163.64" stroke="#000000" stroke-width="1" fill="none"></path></g></g><mask></mask><g stroke-linecap="round" transform="translate(65 58) rotate(0 40 30)"><path d="M15 0 M15 0 C32.15 -0.01, 51.31 -1.71, 65 0 M15 0 C32.32 1.19, 50.67 -0.67, 65 0 M65 0 C76.72 0, 79.21 6.23, 80 15 M65 0 C74.56 1.77, 78.81 5.53, 80 15 M80 15 C78.29 25.9, 82 34.93, 80 45 M80 15 C80.19 23.99, 79.08 32.86, 80 45 M80 45 C80.76 54.02, 74.59 59, 65 60 M80 45 C79.78 57.09, 76.49 62, 65 60 M65 60 C50.91 58.16, 33.07 58.87, 15 60 M65 60 C52.69 59.28, 39.3 61.06, 15 60 M15 60 C4.21 60.3, -1.31 54.93, 0 45 M15 60 C4.68 59.97, -0.56 53.86, 0 45 M0 45 C-0.92 33.43, -0.12 20.05, 0 15 M0 45 C0.28 34.04, -0.66 21.66, 0 15 M0 15 C0.44 4.92, 4.69 0.1, 15 0 M0 15 C0.22 4.21, 4.87 -0.04, 15 0" stroke="#c92a2a" stroke-width="1" fill="none"></path></g><g transform="translate(72.79002380371094 75.5) rotate(0 32.20997619628906 12.5)"><text x="32.20997619628906" y="0" font-family="Virgil, Segoe UI Emoji" font-size="20px" fill="#c92a2a" text-anchor="middle" style="white-space: pre;" direction="ltr" dominant-baseline="text-before-edge">core 0</text></g><g stroke-linecap="round" transform="translate(71 142) rotate(0 34.5 20.5)"><path d="M10.25 0 M10.25 0 C24.71 1.27, 39.9 0.77, 58.75 0 M10.25 0 C27.97 0.49, 44.16 -0.71, 58.75 0 M58.75 0 C65.11 -0.57, 67.27 3.03, 69 10.25 M58.75 0 C66.56 0.21, 67.96 1.51, 69 10.25 M69 10.25 C70.5 16.7, 69.68 22.23, 69 30.75 M69 10.25 C68.09 17.57, 68.44 25.6, 69 30.75 M69 30.75 C69.05 39.24, 65.11 42.25, 58.75 41 M69 30.75 C70.17 36.43, 67.13 38.76, 58.75 41 M58.75 41 C41.77 41.09, 25.44 41.27, 10.25 41 M58.75 41 C45.56 41.17, 30.84 40.69, 10.25 41 M10.25 41 C4.83 41.39, 0.98 36.13, 0 30.75 M10.25 41 C2.65 39.9, -0.2 35.71, 0 30.75 M0 30.75 C1.57 25.7, -0.33 18.43, 0 10.25 M0 30.75 C-0.42 23.29, 0.76 17.68, 0 10.25 M0 10.25 C0.16 4.63, 2.88 -1.52, 10.25 0 M0 10.25 C0.09 3.95, 2.81 -1.78, 10.25 0" stroke="#364fc7" stroke-width="1" fill="none"></path></g><g transform="translate(76.12001037597656 150) rotate(0 29.379989624023438 12.5)"><text x="29.379989624023438" y="0" font-family="Virgil, Segoe UI Emoji" font-size="20px" fill="#364fc7" text-anchor="middle" style="white-space: pre;" direction="ltr" dominant-baseline="text-before-edge">L1, L2</text></g><g stroke-linecap="round"><g transform="translate(337.10788161527364 202.91350000984994) rotate(0 48.65724931806329 -1.8305432271210975)"><path d="M0.33 -0.33 C16.52 -0.81, 79.94 -3.03, 96.06 -3.33 M-0.96 -1.55 C15.7 -1.82, 82.06 -1.56, 98.27 -1.96" stroke="#000000" stroke-width="1" fill="none"></path></g></g><mask></mask><g transform="translate(430.10788161527364 199.91350000984994) rotate(0 4.0000499999999874 0.00005000000010113581)" stroke="none"><path fill="#000000" d="M 0.00,-2.23 Q 0.00,-2.23 3.03,-2.27 6.06,-2.31 6.43,-2.25 6.80,-2.19 7.13,-2.01 7.46,-1.84 7.72,-1.56 7.97,-1.29 8.13,-0.95 8.29,-0.61 8.33,-0.24 8.37,0.12 8.29,0.49 8.21,0.85 8.02,1.17 7.82,1.49 7.54,1.73 7.25,1.98 6.91,2.11 6.56,2.25 6.18,2.27 5.81,2.29 5.45,2.19 5.09,2.09 4.78,1.88 4.47,1.67 4.24,1.38 4.02,1.08 3.90,0.72 3.78,0.37 3.78,-0.00 3.78,-0.37 3.90,-0.72 4.02,-1.08 4.25,-1.38 4.47,-1.67 4.78,-1.88 5.09,-2.09 5.45,-2.19 5.81,-2.29 6.19,-2.27 6.56,-2.25 6.91,-2.11 7.25,-1.98 7.54,-1.73 7.82,-1.49 8.02,-1.17 8.21,-0.85 8.29,-0.48 8.37,-0.12 8.33,0.24 8.29,0.61 8.13,0.95 7.97,1.29 7.72,1.56 7.46,1.84 7.13,2.01 6.80,2.19 6.43,2.25 6.06,2.31 6.06,2.31 6.06,2.31 3.03,2.27 -0.00,2.23 -0.26,2.20 -0.53,2.17 -0.78,2.07 -1.04,1.98 -1.26,1.82 -1.48,1.67 -1.66,1.47 -1.84,1.27 -1.96,1.03 -2.09,0.79 -2.15,0.53 -2.22,0.26 -2.22,-0.00 -2.22,-0.26 -2.15,-0.53 -2.09,-0.79 -1.96,-1.03 -1.84,-1.27 -1.66,-1.47 -1.48,-1.67 -1.26,-1.82 -1.03,-1.98 -0.78,-2.07 -0.53,-2.17 -0.26,-2.20 0.00,-2.23 0.00,-2.23 L 0.00,-2.23 Z"></path></g><g stroke-linecap="round"><g transform="translate(439.10788161527364 201.91350000984994) rotate(0 -1.2301246730517619 -81.91350000984971)"><path d="M0.74 0.95 C0.35 -26.42, -1.55 -137.31, -2.17 -164.77 M-0.33 0.4 C-0.91 -26.79, -3.16 -136.51, -3.2 -163.64" stroke="#000000" stroke-width="1" fill="none"></path></g></g><mask></mask><g stroke-linecap="round" transform="translate(347.10788161527364 58.91350000984994) rotate(0 40 30)"><path d="M15 0 M15 0 C32.15 -0.01, 51.31 -1.71, 65 0 M15 0 C32.32 1.19, 50.67 -0.67, 65 0 M65 0 C76.72 0, 79.21 6.23, 80 15 M65 0 C74.56 1.77, 78.81 5.53, 80 15 M80 15 C78.29 25.9, 82 34.93, 80 45 M80 15 C80.19 23.99, 79.08 32.86, 80 45 M80 45 C80.76 54.02, 74.59 59, 65 60 M80 45 C79.78 57.09, 76.49 62, 65 60 M65 60 C50.91 58.16, 33.07 58.87, 15 60 M65 60 C52.69 59.28, 39.3 61.06, 15 60 M15 60 C4.21 60.3, -1.31 54.93, 0 45 M15 60 C4.68 59.97, -0.56 53.86, 0 45 M0 45 C-0.92 33.43, -0.12 20.05, 0 15 M0 45 C0.28 34.04, -0.66 21.66, 0 15 M0 15 C0.44 4.92, 4.69 0.1, 15 0 M0 15 C0.22 4.21, 4.87 -0.04, 15 0" stroke="#c92a2a" stroke-width="1" fill="none"></path></g><g transform="translate(354.8979054189846 76.41350000984994) rotate(0 32.20997619628906 12.5)"><text x="32.20997619628906" y="0" font-family="Virgil, Segoe UI Emoji" font-size="20px" fill="#c92a2a" text-anchor="middle" style="white-space: pre;" direction="ltr" dominant-baseline="text-before-edge">core 0</text></g><g stroke-linecap="round" transform="translate(353.10788161527364 142.91350000984994) rotate(0 34.5 20.5)"><path d="M10.25 0 M10.25 0 C24.71 1.27, 39.9 0.77, 58.75 0 M10.25 0 C27.97 0.49, 44.16 -0.71, 58.75 0 M58.75 0 C65.11 -0.57, 67.27 3.03, 69 10.25 M58.75 0 C66.56 0.21, 67.96 1.51, 69 10.25 M69 10.25 C70.5 16.7, 69.68 22.23, 69 30.75 M69 10.25 C68.09 17.57, 68.44 25.6, 69 30.75 M69 30.75 C69.05 39.24, 65.11 42.25, 58.75 41 M69 30.75 C70.17 36.43, 67.13 38.76, 58.75 41 M58.75 41 C41.77 41.09, 25.44 41.27, 10.25 41 M58.75 41 C45.56 41.17, 30.84 40.69, 10.25 41 M10.25 41 C4.83 41.39, 0.98 36.13, 0 30.75 M10.25 41 C2.65 39.9, -0.2 35.71, 0 30.75 M0 30.75 C1.57 25.7, -0.33 18.43, 0 10.25 M0 30.75 C-0.42 23.29, 0.76 17.68, 0 10.25 M0 10.25 C0.16 4.63, 2.88 -1.52, 10.25 0 M0 10.25 C0.09 3.95, 2.81 -1.78, 10.25 0" stroke="#364fc7" stroke-width="1" fill="none"></path></g><g transform="translate(358.2278919912502 150.91350000984994) rotate(0 29.379989624023438 12.5)"><text x="29.379989624023438" y="0" font-family="Virgil, Segoe UI Emoji" font-size="20px" fill="#364fc7" text-anchor="middle" style="white-space: pre;" direction="ltr" dominant-baseline="text-before-edge">L1, L2</text></g><g stroke-linecap="round"><g transform="translate(337 202) rotate(0 -0.6327653610245534 -82.69649672012793)"><path d="M-0.87 -0.07 C-1.05 -27.18, -2.12 -136.17, -2.2 -163.82 M0.88 -1.15 C1.13 -28.46, 0.41 -137.99, -0.11 -165.32" stroke="#000000" stroke-width="1" fill="none"></path></g></g><mask></mask><g transform="translate(205 10) rotate(0 47.63994598388672 12.5)"><text x="0" y="0" font-family="Virgil, Segoe UI Emoji" font-size="20px" fill="#000000" text-anchor="start" style="white-space: pre;" direction="ltr" dominant-baseline="text-before-edge">Processor</text></g><g stroke-linecap="round" transform="translate(131 228) rotate(0 116 33)"><path d="M16.5 0 M16.5 0 C78.96 0.47, 140.8 2.08, 215.5 0 M16.5 0 C58.82 -1.31, 99.38 -2.22, 215.5 0 M215.5 0 C225.31 1.38, 232.77 3.82, 232 16.5 M215.5 0 C226.6 2.19, 233.49 3.91, 232 16.5 M232 16.5 C232.62 28.42, 234.06 39.17, 232 49.5 M232 16.5 C231.85 25.98, 232.16 33.63, 232 49.5 M232 49.5 C232.6 62.23, 225.21 65.86, 215.5 66 M232 49.5 C233.12 60.37, 227.85 65.58, 215.5 66 M215.5 66 C140.76 63.51, 69.06 66.73, 16.5 66 M215.5 66 C160.95 66.06, 107.26 67.59, 16.5 66 M16.5 66 C7.34 67.8, -1.31 59.18, 0 49.5 M16.5 66 C4.72 67.61, 0.22 61.31, 0 49.5 M0 49.5 C-0.01 38.2, 1.76 27.92, 0 16.5 M0 49.5 C-0.25 37, -0.78 24.32, 0 16.5 M0 16.5 C1.84 4.55, 3.7 -0.12, 16.5 0 M0 16.5 C0.72 3.64, 5.12 2.05, 16.5 0" stroke="#000000" stroke-width="1" fill="none"></path></g><g transform="translate(234.20000457763672 248.5) rotate(0 12.799995422363281 12.5)"><text x="12.799995422363281" y="0" font-family="Virgil, Segoe UI Emoji" font-size="20px" fill="#000000" text-anchor="middle" style="white-space: pre;" direction="ltr" dominant-baseline="text-before-edge">L3</text></g><g stroke-linecap="round" transform="translate(23 393) rotate(0 247.5 32)"><path d="M16 0 M16 0 C152.91 0.13, 287.99 -0.43, 479 0 M16 0 C126.43 -1.92, 237.37 -2.33, 479 0 M479 0 C487.72 0.02, 496.11 7.18, 495 16 M479 0 C491.74 -1.51, 493.49 4.55, 495 16 M495 16 C495.36 28.37, 493.33 39.76, 495 48 M495 16 C496.14 25.01, 495.77 32.46, 495 48 M495 48 C495.41 57.63, 490.11 65.84, 479 64 M495 48 C493.9 56.59, 489.53 64.72, 479 64 M479 64 C377.94 65.52, 275.83 66.65, 16 64 M479 64 C309.74 62.92, 139.62 62.21, 16 64 M16 64 C3.35 63.89, -0.52 60.37, 0 48 M16 64 C5.78 62.27, -1.05 56.45, 0 48 M0 48 C-0.49 38.11, 1.94 28.88, 0 16 M0 48 C-0.47 36.81, 0.18 26.57, 0 16 M0 16 C-1.05 6.12, 7.02 -0.31, 16 0 M0 16 C-0.12 7.49, 3.21 -0.15, 16 0" stroke="#000000" stroke-width="1" fill="none"></path></g><g transform="translate(193 413) rotate(0 72.63993072509766 12.5)"><text x="0" y="0" font-family="Virgil, Segoe UI Emoji" font-size="20px" fill="#000000" text-anchor="start" style="white-space: pre;" direction="ltr" dominant-baseline="text-before-edge">System Memory</text></g><g stroke-linecap="round"><g transform="translate(40 361) rotate(0 223.6894618917256 1.1511103000771072)"><path d="M-0.61 -0.88 C74.25 -0.62, 373.49 1.39, 447.99 2.11 M1.27 1.27 C76.16 1.61, 373.56 3.16, 447.56 3.19" stroke="#e67700" stroke-width="1" fill="none"></path></g></g><mask></mask><g stroke-linecap="round"><g transform="translate(75 365) rotate(0 0.26081754025707937 13.46134461939323)"><path d="M-0.46 0.93 C-0.81 5.33, -1.05 20.97, -0.96 25.35 M1.5 0.38 C1.41 5.01, 1.61 22.36, 1.25 26.54" stroke="#000000" stroke-width="1" fill="none"></path></g><g transform="translate(75 365) rotate(0 0.26081754025707937 13.46134461939323)"><path d="M-1.82 13.16 C-2.03 19.19, 1.59 23.65, 1.15 25.7 M-3.38 14.05 C-1.42 17.87, 0.24 22.96, 0.99 26.98" stroke="#000000" stroke-width="1" fill="none"></path></g><g transform="translate(75 365) rotate(0 0.26081754025707937 13.46134461939323)"><path d="M7.07 13.42 C3.34 19.32, 3.43 23.67, 1.15 25.7 M5.51 14.32 C4.33 18.12, 2.87 23.12, 0.99 26.98" stroke="#000000" stroke-width="1" fill="none"></path></g></g><mask></mask><g stroke-linecap="round"><g transform="translate(75 358) rotate(0 0.7795217313990008 -19.963942612074334)"><path d="M0.07 -0.01 C0.67 -6.33, 2.24 -31.63, 2.92 -38.21 M-1.36 -1.06 C-0.86 -7.7, 1.03 -33.69, 1.92 -39.92" stroke="#000000" stroke-width="1" fill="none"></path></g><g transform="translate(75 358) rotate(0 0.7795217313990008 -19.963942612074334)"><path d="M6.7 -21.09 C6.89 -23.67, 3.63 -29.95, 0.79 -40.28 M7.05 -20.8 C4.94 -27.87, 2.8 -35.05, 1.22 -39.97" stroke="#000000" stroke-width="1" fill="none"></path></g><g transform="translate(75 358) rotate(0 0.7795217313990008 -19.963942612074334)"><path d="M-6.61 -22.45 C-3.2 -24.71, -3.24 -30.66, 0.79 -40.28 M-6.26 -22.15 C-3.47 -28.7, -0.71 -35.38, 1.22 -39.97" stroke="#000000" stroke-width="1" fill="none"></path></g></g><mask></mask><g stroke-linecap="round"><g transform="translate(212 360) rotate(0 -0.2075769210447902 -19.806842385605023)"><path d="M0.28 0.08 C0.54 -6.65, 0.7 -33.18, 0.56 -39.7 M-1.03 -0.92 C-0.79 -7.57, 0.01 -32.4, -0.09 -38.53" stroke="#000000" stroke-width="1" fill="none"></path></g><g transform="translate(212 360) rotate(0 -0.2075769210447902 -19.806842385605023)"><path d="M6.5 -19.21 C3.72 -24.96, 3.46 -28.18, -0.56 -38.7 M6.32 -20.02 C4.97 -26.93, 2 -33.81, -0.11 -39.35" stroke="#000000" stroke-width="1" fill="none"></path></g><g transform="translate(212 360) rotate(0 -0.2075769210447902 -19.806842385605023)"><path d="M-6.84 -19.37 C-6.73 -25.12, -4.11 -28.3, -0.56 -38.7 M-7.01 -20.18 C-3.44 -26.94, -1.48 -33.76, -0.11 -39.35" stroke="#000000" stroke-width="1" fill="none"></path></g></g><mask></mask><g stroke-linecap="round"><g transform="translate(207 366) rotate(0 -0.06543747073027362 11.770091347582593)"><path d="M-1.15 -1.17 C-1.16 2.99, 1.01 19.45, 1.02 23.8 M0.44 0.83 C0.27 5.19, 0.48 20.47, 0.61 24.71" stroke="#000000" stroke-width="1" fill="none"></path></g><g transform="translate(207 366) rotate(0 -0.06543747073027362 11.770091347582593)"><path d="M-5.12 14.12 C-3.51 16.5, -0.54 22.45, 0.14 24.62 M-4.4 12.72 C-2.96 17.28, -0.7 20.29, 0.21 25.08" stroke="#000000" stroke-width="1" fill="none"></path></g><g transform="translate(207 366) rotate(0 -0.06543747073027362 11.770091347582593)"><path d="M3.42 13.95 C1.72 16.31, 1.37 22.33, 0.14 24.62 M4.15 12.55 C2.71 17.19, 2.11 20.26, 0.21 25.08" stroke="#000000" stroke-width="1" fill="none"></path></g></g><mask></mask><g stroke-linecap="round"><g transform="translate(340 362) rotate(0 -0.6094603383354524 -20.93409723554737)"><path d="M-1.19 1.05 C-1.28 -5.73, -0.58 -34.18, -0.43 -41.21 M0.38 0.56 C0.1 -6.52, -1.34 -35.66, -1.6 -42.92" stroke="#000000" stroke-width="1" fill="none"></path></g><g transform="translate(340 362) rotate(0 -0.6094603383354524 -20.93409723554737)"><path d="M8.19 -24.23 C5.36 -29.96, 3.06 -35.65, -2.36 -42.58 M5.75 -22.95 C4.18 -29.18, 1.95 -35.04, -0.74 -41.97" stroke="#000000" stroke-width="1" fill="none"></path></g><g transform="translate(340 362) rotate(0 -0.6094603383354524 -20.93409723554737)"><path d="M-6.17 -23.61 C-4.6 -29.38, -2.5 -35.27, -2.36 -42.58 M-8.6 -22.33 C-5.88 -28.62, -3.83 -34.67, -0.74 -41.97" stroke="#000000" stroke-width="1" fill="none"></path></g></g><mask></mask><g stroke-linecap="round"><g transform="translate(367 364) rotate(0 0.5685890674218399 15.590317691005794)"><path d="M-0.42 0.53 C-0.27 5.84, 0.59 26.3, 0.74 31.42 M1.56 -0.24 C1.55 4.74, 0 24.03, -0.34 29.52" stroke="#000000" stroke-width="1" fill="none"></path></g><g transform="translate(367 364) rotate(0 0.5685890674218399 15.590317691005794)"><path d="M-3.92 14.27 C-2.9 18.21, -1.91 23.07, -0.1 29.54 M-5.16 14.4 C-3.66 20.08, -1.51 25.05, -1.07 29.88" stroke="#000000" stroke-width="1" fill="none"></path></g><g transform="translate(367 364) rotate(0 0.5685890674218399 15.590317691005794)"><path d="M6.66 15.03 C4.68 18.71, 2.66 23.36, -0.1 29.54 M5.42 15.15 C3.07 20.6, 1.37 25.3, -1.07 29.88" stroke="#000000" stroke-width="1" fill="none"></path></g></g><mask></mask><g stroke-linecap="round" transform="translate(626 270) rotate(0 69.50000000000006 62)"><path d="M64.18 -0.72 C74.18 -2.53, 86.9 0.87, 96.89 4.83 C106.87 8.78, 117.41 15.54, 124.09 23.01 C130.78 30.49, 134.9 40.18, 136.97 49.69 C139.03 59.2, 139.45 70.76, 136.48 80.07 C133.52 89.38, 126.74 98.61, 119.18 105.58 C111.63 112.54, 101.32 118.86, 91.15 121.88 C80.97 124.9, 68.64 125.34, 58.13 123.72 C47.63 122.11, 36.71 118.09, 28.14 112.2 C19.56 106.3, 11.49 97.21, 6.67 88.34 C1.84 79.47, -1.21 68.54, -0.81 58.99 C-0.41 49.44, 3.39 39.14, 9.06 31.04 C14.72 22.94, 23.7 15.59, 33.19 10.38 C42.68 5.16, 60.09 1.32, 66 -0.27 C71.91 -1.87, 68.46 -0.3, 68.66 0.83 M56.14 2.74 C65.83 0.02, 77.85 0.44, 88.03 2.97 C98.2 5.51, 109.19 11.45, 117.2 17.96 C125.21 24.47, 132.76 33.21, 136.08 42.04 C139.4 50.87, 138.72 61.51, 137.12 70.96 C135.52 80.41, 132.76 91.19, 126.46 98.75 C120.16 106.31, 109.23 112.21, 99.31 116.32 C89.4 120.44, 77.4 123.7, 66.96 123.44 C56.51 123.19, 46.04 119.22, 36.64 114.79 C27.24 110.35, 16.44 104.88, 10.56 96.81 C4.68 88.74, 2.36 76.14, 1.38 66.39 C0.39 56.63, 0.8 47.06, 4.65 38.28 C8.51 29.5, 16.35 19.86, 24.49 13.72 C32.63 7.58, 48.4 3.42, 53.49 1.41 C58.57 -0.59, 54.34 0.55, 55.01 1.68" stroke="#5c940d" stroke-width="1" fill="none"></path></g><g transform="translate(670.11608847316 319.6593795664339) rotate(0 25.239990234375 12.5)"><text x="25.239990234375" y="0" font-family="Virgil, Segoe UI Emoji" font-size="20px" fill="#5c940d" text-anchor="middle" style="white-space: pre;" direction="ltr" dominant-baseline="text-before-edge">i = 0</text></g><g stroke-linecap="round"><g transform="translate(619 328) rotate(0 -63.83064436892977 25.775667390180615)"><path d="M0.62 -0.77 C-20.51 7.84, -106.4 42.42, -127.91 51.21 M-0.51 1.43 C-21.6 10.22, -106.88 43.69, -128.28 52.33" stroke="#5c940d" stroke-width="1" fill="none"></path></g><g transform="translate(619 328) rotate(0 -63.83064436892977 25.775667390180615)"><path d="M-107.17 34.19 C-111.87 37.49, -115.19 41.65, -126.41 53.26 M-106.01 31.75 C-113.93 39.91, -121.22 48.02, -127.31 51.38" stroke="#5c940d" stroke-width="1" fill="none"></path></g><g transform="translate(619 328) rotate(0 -63.83064436892977 25.775667390180615)"><path d="M-99.59 53.26 C-105.77 52.69, -110.64 52.94, -126.41 53.26 M-98.43 50.82 C-109.1 52.09, -119.15 53.27, -127.31 51.38" stroke="#5c940d" stroke-width="1" fill="none"></path></g></g><mask></mask></svg>