<svg version="1.1" xmlns="http://www.w3.org/2000/svg" viewBox="0 0 625 466.42857142857144" width="625" height="466.42857142857144">
  <!-- svg-source:excalidraw -->
  
  <defs>
    <style class="style-fonts">
      @font-face {
        font-family: "Virgil";
        src: url("https://file%2B.vscode-resource.vscode-cdn.net/c%3A/Users/TK-LPT-885/.vscode/extensions/pomdtr.excalidraw-editor-3.5.1/public//dist/excalidraw-assets/Virgil.woff2");
      }
      @font-face {
        font-family: "Cascadia";
        src: url("https://file%2B.vscode-resource.vscode-cdn.net/c%3A/Users/TK-LPT-885/.vscode/extensions/pomdtr.excalidraw-editor-3.5.1/public//dist/excalidraw-assets/Cascadia.woff2");
      }
    </style>
  </defs>
  <g stroke-linecap="round" transform="translate(10 43.428571428571445) rotate(0 302.5 206.5)"><path d="M32 0 M32 0 C196.94 0, 361.88 0, 573 0 M32 0 C176.21 0, 320.42 0, 573 0 M573 0 C594.33 0, 605 10.67, 605 32 M573 0 C594.33 0, 605 10.67, 605 32 M605 32 C605 123, 605 214, 605 381 M605 32 C605 127.58, 605 223.15, 605 381 M605 381 C605 402.33, 594.33 413, 573 413 M605 381 C605 402.33, 594.33 413, 573 413 M573 413 C429.4 413, 285.81 413, 32 413 M573 413 C432.93 413, 292.86 413, 32 413 M32 413 C10.67 413, 0 402.33, 0 381 M32 413 C10.67 413, 0 402.33, 0 381 M0 381 C0 260.71, 0 140.43, 0 32 M0 381 C0 280.99, 0 180.98, 0 32 M0 32 C0 10.67, 10.67 0, 32 0 M0 32 C0 10.67, 10.67 0, 32 0" stroke="#1e1e1e" stroke-width="1" fill="none"></path></g><g stroke-linecap="round"><g transform="translate(127 44.428571428571416) rotate(0 -0.5 205)"><path d="M0 0 C-0.17 68.33, -0.83 341.67, -1 410 M0 0 C-0.17 68.33, -0.83 341.67, -1 410" stroke="#1e1e1e" stroke-width="1" fill="none"></path></g></g><mask></mask><g stroke-linecap="round"><g transform="translate(12.714285714285666 149) rotate(0 57 0.5)"><path d="M0 0 C19 0.17, 95 0.83, 114 1 M0 0 C19 0.17, 95 0.83, 114 1" stroke="#1e1e1e" stroke-width="1" fill="none"></path></g></g><mask></mask><g stroke-linecap="round"><g transform="translate(11.714285714285666 233) rotate(0 57.5 -0.5)"><path d="M0 0 C19.17 -0.17, 95.83 -0.83, 115 -1 M0 0 C19.17 -0.17, 95.83 -0.83, 115 -1" stroke="#1e1e1e" stroke-width="1" fill="none"></path></g></g><mask></mask><g transform="translate(32 89.42857142857142) rotate(0 33.989967346191406 12.5)"><text x="0" y="0" font-family="Virgil, Segoe UI Emoji" font-size="20px" fill="#1e1e1e" text-anchor="start" style="white-space: pre;" direction="ltr" dominant-baseline="text-before-edge">Memory</text></g><g transform="translate(33 174.42857142857144) rotate(0 28.28997802734375 12.5)"><text x="0" y="0" font-family="Virgil, Segoe UI Emoji" font-size="20px" fill="#1e1e1e" text-anchor="start" style="white-space: pre;" direction="ltr" dominant-baseline="text-before-edge">Stack</text></g><g transform="translate(34 258.42857142857144) rotate(0 22.579978942871094 12.5)"><text x="0" y="0" font-family="Virgil, Segoe UI Emoji" font-size="20px" fill="#1e1e1e" text-anchor="start" style="white-space: pre;" direction="ltr" dominant-baseline="text-before-edge">Heap</text></g><g stroke-linecap="round" transform="translate(186 82.42857142857142) rotate(0 35 147.5)"><path d="M17.5 0 M17.5 0 C30.35 0, 43.2 0, 52.5 0 M17.5 0 C24.87 0, 32.24 0, 52.5 0 M52.5 0 C64.17 0, 70 5.83, 70 17.5 M52.5 0 C64.17 0, 70 5.83, 70 17.5 M70 17.5 C70 73.96, 70 130.42, 70 277.5 M70 17.5 C70 96.8, 70 176.11, 70 277.5 M70 277.5 C70 289.17, 64.17 295, 52.5 295 M70 277.5 C70 289.17, 64.17 295, 52.5 295 M52.5 295 C43.84 295, 35.18 295, 17.5 295 M52.5 295 C43.23 295, 33.95 295, 17.5 295 M17.5 295 C5.83 295, 0 289.17, 0 277.5 M17.5 295 C5.83 295, 0 289.17, 0 277.5 M0 277.5 C0 221.32, 0 165.15, 0 17.5 M0 277.5 C0 177.63, 0 77.76, 0 17.5 M0 17.5 C0 5.83, 5.83 0, 17.5 0 M0 17.5 C0 5.83, 5.83 0, 17.5 0" stroke="#1e1e1e" stroke-width="1" fill="none"></path></g><g stroke-linecap="round"><g transform="translate(219 105.42857142857144) rotate(0 -0.5 111.5)"><path d="M0 0 C-0.17 37.17, -0.83 185.83, -1 223 M0 0 C-0.17 37.17, -0.83 185.83, -1 223" stroke="#1e1e1e" stroke-width="1" fill="none"></path></g><g transform="translate(219 105.42857142857144) rotate(0 -0.5 111.5)"><path d="M-11.13 194.76 C-7.38 205.21, -3.63 215.66, -1 223 M-11.13 194.76 C-8.87 201.08, -6.6 207.4, -1 223" stroke="#1e1e1e" stroke-width="1" fill="none"></path></g><g transform="translate(219 105.42857142857144) rotate(0 -0.5 111.5)"><path d="M9.39 194.86 C5.54 205.27, 1.7 215.69, -1 223 M9.39 194.86 C7.06 201.15, 4.74 207.45, -1 223" stroke="#1e1e1e" stroke-width="1" fill="none"></path></g></g><mask></mask><g transform="translate(255 91.42857142857142) rotate(0 58.5 -8)" stroke="none"><path fill="#1e1e1e" d="M -0.43,-1.75 Q -0.43,-1.75 1.87,-2.26 4.19,-2.77 8.28,-4.10 12.37,-5.43 17.26,-7.41 22.15,-9.39 27.76,-11.11 33.37,-12.83 39.80,-14.42 46.22,-16.01 51.79,-17.53 57.37,-19.05 60.35,-19.71 63.34,-20.36 64.89,-20.74 66.44,-21.12 68.54,-21.15 70.64,-21.19 72.56,-19.74 74.49,-18.29 76.45,-16.17 78.41,-14.05 80.60,-11.75 82.80,-9.45 85.13,-7.35 87.46,-5.24 89.28,-3.78 91.11,-2.31 92.28,-1.46 93.45,-0.61 94.54,-0.40 95.63,-0.18 96.99,0.18 98.36,0.56 99.94,0.85 101.53,1.14 102.72,1.19 103.91,1.23 105.06,1.19 106.22,1.15 107.49,0.89 108.77,0.63 109.83,0.19 110.89,-0.25 111.45,-1.35 112.02,-2.46 113.04,-3.39 114.06,-4.31 114.39,-4.71 114.71,-5.12 115.14,-5.40 115.57,-5.69 116.07,-5.82 116.58,-5.95 117.09,-5.91 117.61,-5.87 118.09,-5.67 118.56,-5.47 118.95,-5.13 119.34,-4.79 119.60,-4.34 119.86,-3.89 119.96,-3.38 120.06,-2.87 120.00,-2.36 119.93,-1.85 119.71,-1.38 119.48,-0.92 119.12,-0.55 118.75,-0.18 118.29,0.05 117.83,0.28 117.32,0.36 116.81,0.43 116.30,0.34 115.79,0.24 115.33,-0.00 114.88,-0.25 114.53,-0.63 114.18,-1.01 113.97,-1.49 113.77,-1.96 113.72,-2.47 113.67,-2.99 113.79,-3.49 113.91,-4.00 114.19,-4.44 114.46,-4.87 114.86,-5.20 115.27,-5.53 115.75,-5.71 116.23,-5.90 116.75,-5.91 117.27,-5.93 117.76,-5.79 118.26,-5.64 118.68,-5.34 119.11,-5.04 119.41,-4.62 119.72,-4.21 119.87,-3.71 120.03,-3.22 120.02,-2.70 120.01,-2.18 119.84,-1.70 119.66,-1.21 119.66,-1.21 119.66,-1.21 117.58,0.85 115.51,2.91 114.60,3.74 113.69,4.57 112.09,5.39 110.49,6.20 109.15,6.53 107.81,6.87 106.37,6.79 104.92,6.71 103.18,6.52 101.45,6.32 99.93,5.74 98.41,5.16 96.49,4.43 94.57,3.70 92.95,2.80 91.34,1.91 90.33,0.93 89.33,-0.04 87.40,-1.52 85.47,-3.00 83.02,-5.13 80.57,-7.26 78.29,-9.51 76.01,-11.76 74.20,-13.58 72.39,-15.40 70.85,-16.45 69.32,-17.51 68.16,-17.78 66.99,-18.05 65.46,-17.87 63.93,-17.69 61.02,-17.04 58.11,-16.38 52.51,-14.82 46.91,-13.26 40.57,-11.66 34.23,-10.06 28.76,-8.33 23.29,-6.60 18.34,-4.52 13.38,-2.44 9.19,-0.98 5.00,0.47 2.72,1.11 0.43,1.75 0.22,1.78 0.00,1.81 -0.21,1.78 -0.42,1.76 -0.63,1.68 -0.83,1.60 -1.01,1.48 -1.19,1.35 -1.34,1.19 -1.48,1.03 -1.58,0.84 -1.69,0.64 -1.74,0.43 -1.79,0.22 -1.79,0.00 -1.79,-0.21 -1.74,-0.42 -1.69,-0.63 -1.59,-0.83 -1.49,-1.02 -1.34,-1.18 -1.20,-1.35 -1.02,-1.47 -0.84,-1.60 -0.64,-1.67 -0.43,-1.75 -0.43,-1.75 L -0.43,-1.75 Z"></path></g><g transform="translate(370 58.428571428571416) rotate(0 61.299957275390625 12.5)"><text x="0" y="0" font-family="Virgil, Segoe UI Emoji" font-size="20px" fill="#1e1e1e" text-anchor="start" style="white-space: pre;" direction="ltr" dominant-baseline="text-before-edge">Main Thread</text></g><g transform="translate(66.71428571428567 10) rotate(0 37.799957275390625 12.5)"><text x="0" y="0" font-family="Virgil, Segoe UI Emoji" font-size="20px" fill="#1e1e1e" text-anchor="start" style="white-space: pre;" direction="ltr" dominant-baseline="text-before-edge">Process</text></g></svg>