<svg version="1.1" xmlns="http://www.w3.org/2000/svg" viewBox="0 0 848.8000793457031 384.84999084472656" width="848.8000793457031" height="384.84999084472656">
  <!-- svg-source:excalidraw -->
  
  <defs>
    <style class="style-fonts">
      @font-face {
        font-family: "Virgil";
        src: url("https://file%2B.vscode-resource.vscode-cdn.net/c%3A/Users/TK-LPT-885/.vscode/extensions/pomdtr.excalidraw-editor-3.5.1/public//dist/excalidraw-assets/Virgil.woff2");
      }
      @font-face {
        font-family: "Cascadia";
        src: url("https://file%2B.vscode-resource.vscode-cdn.net/c%3A/Users/TK-LPT-885/.vscode/extensions/pomdtr.excalidraw-editor-3.5.1/public//dist/excalidraw-assets/Cascadia.woff2");
      }
    </style>
  </defs>
  <g stroke-linecap="round" transform="translate(92.4000244140625 130.0500030517578) rotate(0 43.19999694824219 28.800003051757812)"><path d="M14.4 0 M14.4 0 C29.96 0, 45.52 0, 72 0 M14.4 0 C31.99 0, 49.59 0, 72 0 M72 0 C81.6 0, 86.4 4.8, 86.4 14.4 M72 0 C81.6 0, 86.4 4.8, 86.4 14.4 M86.4 14.4 C86.4 24.14, 86.4 33.88, 86.4 43.2 M86.4 14.4 C86.4 23.75, 86.4 33.11, 86.4 43.2 M86.4 43.2 C86.4 52.8, 81.6 57.6, 72 57.6 M86.4 43.2 C86.4 52.8, 81.6 57.6, 72 57.6 M72 57.6 C51.31 57.6, 30.63 57.6, 14.4 57.6 M72 57.6 C53.1 57.6, 34.21 57.6, 14.4 57.6 M14.4 57.6 C4.8 57.6, 0 52.8, 0 43.2 M14.4 57.6 C4.8 57.6, 0 52.8, 0 43.2 M0 43.2 C0 32.05, 0 20.91, 0 14.4 M0 43.2 C0 35.16, 0 27.12, 0 14.4 M0 14.4 C0 4.8, 4.8 0, 14.4 0 M0 14.4 C0 4.8, 4.8 0, 14.4 0" stroke="#364fc7" stroke-width="2" fill="none"></path></g><g transform="translate(117.60003662109375 146.35000610351562) rotate(0 17.999984741210938 12.5)"><text x="17.999984741210938" y="0" font-family="Virgil, Segoe UI Emoji" font-size="20px" fill="#364fc7" text-anchor="middle" style="white-space: pre;" direction="ltr" dominant-baseline="text-before-edge">New</text></g><g stroke-linecap="round" transform="translate(270.6000061035156 117.44999694824219) rotate(0 101.5 37.5)"><path d="M18.75 0 M18.75 0 C62.06 0, 105.37 0, 184.25 0 M18.75 0 C57.76 0, 96.78 0, 184.25 0 M184.25 0 C196.75 0, 203 6.25, 203 18.75 M184.25 0 C196.75 0, 203 6.25, 203 18.75 M203 18.75 C203 27.1, 203 35.45, 203 56.25 M203 18.75 C203 28.49, 203 38.23, 203 56.25 M203 56.25 C203 68.75, 196.75 75, 184.25 75 M203 56.25 C203 68.75, 196.75 75, 184.25 75 M184.25 75 C128.34 75, 72.43 75, 18.75 75 M184.25 75 C136.27 75, 88.3 75, 18.75 75 M18.75 75 C6.25 75, 0 68.75, 0 56.25 M18.75 75 C6.25 75, 0 68.75, 0 56.25 M0 56.25 C0 44.3, 0 32.35, 0 18.75 M0 56.25 C0 44.62, 0 32.98, 0 18.75 M0 18.75 C0 6.25, 6.25 0, 18.75 0 M0 18.75 C0 6.25, 6.25 0, 18.75 0" stroke="#364fc7" stroke-width="2" fill="none"></path></g><g transform="translate(330.45003509521484 142.4499969482422) rotate(0 41.64997100830078 12.5)"><text x="41.64997100830078" y="0" font-family="Virgil, Segoe UI Emoji" font-size="20px" fill="#364fc7" text-anchor="middle" style="white-space: pre;" direction="ltr" dominant-baseline="text-before-edge">Runnable</text></g><g stroke-linecap="round" transform="translate(669.2001647949219 33.24995422363281) rotate(0 55.199981689453125 34.79999542236328)"><path d="M17.4 0 M17.4 0 C38.95 0, 60.5 0, 93 0 M17.4 0 C37.49 0, 57.58 0, 93 0 M93 0 C104.6 0, 110.4 5.8, 110.4 17.4 M93 0 C104.6 0, 110.4 5.8, 110.4 17.4 M110.4 17.4 C110.4 24.77, 110.4 32.14, 110.4 52.2 M110.4 17.4 C110.4 25.88, 110.4 34.35, 110.4 52.2 M110.4 52.2 C110.4 63.8, 104.6 69.6, 93 69.6 M110.4 52.2 C110.4 63.8, 104.6 69.6, 93 69.6 M93 69.6 C66.07 69.6, 39.14 69.6, 17.4 69.6 M93 69.6 C69.73 69.6, 46.47 69.6, 17.4 69.6 M17.4 69.6 C5.8 69.6, 0 63.8, 0 52.2 M17.4 69.6 C5.8 69.6, 0 63.8, 0 52.2 M0 52.2 C0 40.98, 0 29.75, 0 17.4 M0 52.2 C0 43.43, 0 34.65, 0 17.4 M0 17.4 C0 5.8, 5.8 0, 17.4 0 M0 17.4 C0 5.8, 5.8 0, 17.4 0" stroke="#364fc7" stroke-width="2" fill="none"></path></g><g transform="translate(687.9101791381836 55.549949645996094) rotate(0 36.489967346191406 12.5)"><text x="36.489967346191406" y="0" font-family="Virgil, Segoe UI Emoji" font-size="20px" fill="#364fc7" text-anchor="middle" style="white-space: pre;" direction="ltr" dominant-baseline="text-before-edge">Blocked</text></g><g stroke-linecap="round" transform="translate(739.6000671386719 158.84999084472656) rotate(0 49.600006103515625 33.19999694824219)"><path d="M16.6 0 M16.6 0 C35.26 0, 53.92 0, 82.6 0 M16.6 0 C40.54 0, 64.48 0, 82.6 0 M82.6 0 C93.67 0, 99.2 5.53, 99.2 16.6 M82.6 0 C93.67 0, 99.2 5.53, 99.2 16.6 M99.2 16.6 C99.2 25.84, 99.2 35.07, 99.2 49.8 M99.2 16.6 C99.2 25.13, 99.2 33.66, 99.2 49.8 M99.2 49.8 C99.2 60.87, 93.67 66.4, 82.6 66.4 M99.2 49.8 C99.2 60.87, 93.67 66.4, 82.6 66.4 M82.6 66.4 C64.57 66.4, 46.53 66.4, 16.6 66.4 M82.6 66.4 C61.17 66.4, 39.73 66.4, 16.6 66.4 M16.6 66.4 C5.53 66.4, 0 60.87, 0 49.8 M16.6 66.4 C5.53 66.4, 0 60.87, 0 49.8 M0 49.8 C0 38.95, 0 28.1, 0 16.6 M0 49.8 C0 37.63, 0 25.46, 0 16.6 M0 16.6 C0 5.53, 5.53 0, 16.6 0 M0 16.6 C0 5.53, 5.53 0, 16.6 0" stroke="#364fc7" stroke-width="2" fill="none"></path></g><g transform="translate(755.3600997924805 179.54998779296875) rotate(0 33.83997344970703 12.5)"><text x="33.83997344970703" y="0" font-family="Virgil, Segoe UI Emoji" font-size="20px" fill="#364fc7" text-anchor="middle" style="white-space: pre;" direction="ltr" dominant-baseline="text-before-edge">Waiting</text></g><g stroke-linecap="round" transform="translate(700.4000549316406 293.2499542236328) rotate(0 51.20001220703125 32.00001525878906)"><path d="M16 0 M16 0 C43.99 0, 71.99 0, 86.4 0 M16 0 C39.98 0, 63.96 0, 86.4 0 M86.4 0 C97.07 0, 102.4 5.33, 102.4 16 M86.4 0 C97.07 0, 102.4 5.33, 102.4 16 M102.4 16 C102.4 24.8, 102.4 33.6, 102.4 48 M102.4 16 C102.4 25.47, 102.4 34.94, 102.4 48 M102.4 48 C102.4 58.67, 97.07 64, 86.4 64 M102.4 48 C102.4 58.67, 97.07 64, 86.4 64 M86.4 64 C69.96 64, 53.51 64, 16 64 M86.4 64 C69.19 64, 51.98 64, 16 64 M16 64 C5.33 64, 0 58.67, 0 48 M16 64 C5.33 64, 0 58.67, 0 48 M0 48 C0 40.07, 0 32.13, 0 16 M0 48 C0 38.59, 0 29.18, 0 16 M0 16 C0 5.33, 5.33 0, 16 0 M0 16 C0 5.33, 5.33 0, 16 0" stroke="#364fc7" stroke-width="2" fill="none"></path></g><g transform="translate(717.7600936889648 300.2499694824219) rotate(0 33.83997344970703 25)"><text x="33.83997344970703" y="0" font-family="Virgil, Segoe UI Emoji" font-size="20px" fill="#364fc7" text-anchor="middle" style="white-space: pre;" direction="ltr" dominant-baseline="text-before-edge">Timed </text><text x="33.83997344970703" y="25" font-family="Virgil, Segoe UI Emoji" font-size="20px" fill="#364fc7" text-anchor="middle" style="white-space: pre;" direction="ltr" dominant-baseline="text-before-edge">Waiting</text></g><g stroke-linecap="round" transform="translate(333.9999694824219 305.24998474121094) rotate(0 70.39999389648438 34.80000305175781)"><path d="M17.4 0 M17.4 0 C55.02 0, 92.64 0, 123.4 0 M17.4 0 C40.62 0, 63.84 0, 123.4 0 M123.4 0 C135 0, 140.8 5.8, 140.8 17.4 M123.4 0 C135 0, 140.8 5.8, 140.8 17.4 M140.8 17.4 C140.8 26.46, 140.8 35.52, 140.8 52.2 M140.8 17.4 C140.8 26.29, 140.8 35.17, 140.8 52.2 M140.8 52.2 C140.8 63.8, 135 69.6, 123.4 69.6 M140.8 52.2 C140.8 63.8, 135 69.6, 123.4 69.6 M123.4 69.6 C91.77 69.6, 60.13 69.6, 17.4 69.6 M123.4 69.6 C99.73 69.6, 76.06 69.6, 17.4 69.6 M17.4 69.6 C5.8 69.6, 0 63.8, 0 52.2 M17.4 69.6 C5.8 69.6, 0 63.8, 0 52.2 M0 52.2 C0 41.2, 0 30.19, 0 17.4 M0 52.2 C0 44.22, 0 36.25, 0 17.4 M0 17.4 C0 5.8, 5.8 0, 17.4 0 M0 17.4 C0 5.8, 5.8 0, 17.4 0" stroke="#364fc7" stroke-width="2" fill="none"></path></g><g transform="translate(349.9200134277344 327.54998779296875) rotate(0 54.479949951171875 12.5)"><text x="54.479949951171875" y="0" font-family="Virgil, Segoe UI Emoji" font-size="20px" fill="#364fc7" text-anchor="middle" style="white-space: pre;" direction="ltr" dominant-baseline="text-before-edge">Terminated</text></g><g transform="translate(10 133.37415186094472) rotate(0 11.539993286132812 26.037922543648733)"><text x="0" y="0" font-family="Virgil, Segoe UI Emoji" font-size="41.66067606983802px" fill="#364fc7" text-anchor="start" style="white-space: pre;" direction="ltr" dominant-baseline="text-before-edge">o</text></g><g stroke-linecap="round"><g stroke-opacity="0.7" fill-opacity="0.7" transform="translate(41.20001220703125 160.20377578063494) rotate(0 20.800003051757812 -1.1110220139729563)"><path d="M0 0 C6.93 -0.37, 34.67 -1.85, 41.6 -2.22 M0 0 C6.93 -0.37, 34.67 -1.85, 41.6 -2.22" stroke="#364fc7" stroke-width="1" fill="none"></path></g><g stroke-opacity="0.7" fill-opacity="0.7" transform="translate(41.20001220703125 160.20377578063494) rotate(0 20.800003051757812 -1.1110220139729563)"><path d="M22.43 5.94 C29.38 2.98, 36.32 0.03, 41.6 -2.22 M22.43 5.94 C29.38 2.98, 36.33 0.02, 41.6 -2.22" stroke="#364fc7" stroke-width="1" fill="none"></path></g><g stroke-opacity="0.7" fill-opacity="0.7" transform="translate(41.20001220703125 160.20377578063494) rotate(0 20.800003051757812 -1.1110220139729563)"><path d="M21.67 -8.29 C28.89 -6.09, 36.11 -3.89, 41.6 -2.22 M21.67 -8.29 C28.9 -6.09, 36.12 -3.89, 41.6 -2.22" stroke="#364fc7" stroke-width="1" fill="none"></path></g></g><mask></mask><g stroke-linecap="round"><g stroke-opacity="0.7" fill-opacity="0.7" transform="translate(195.3441378138059 149.6316523033072) rotate(0 29.35587439322535 -0.45421262773731996)"><path d="M0 0 C9.79 -0.15, 48.93 -0.76, 58.71 -0.91 M0 0 C9.79 -0.15, 48.93 -0.76, 58.71 -0.91" stroke="#364fc7" stroke-width="1" fill="none"></path></g><g stroke-opacity="0.7" fill-opacity="0.7" transform="translate(195.3441378138059 149.6316523033072) rotate(0 29.35587439322535 -0.45421262773731996)"><path d="M31.28 9.56 C37.81 7.07, 44.34 4.58, 58.71 -0.91 M31.28 9.56 C39.03 6.6, 46.78 3.64, 58.71 -0.91" stroke="#364fc7" stroke-width="1" fill="none"></path></g><g stroke-opacity="0.7" fill-opacity="0.7" transform="translate(195.3441378138059 149.6316523033072) rotate(0 29.35587439322535 -0.45421262773731996)"><path d="M30.97 -10.52 C37.57 -8.23, 44.18 -5.95, 58.71 -0.91 M30.97 -10.52 C38.81 -7.81, 46.65 -5.09, 58.71 -0.91" stroke="#364fc7" stroke-width="1" fill="none"></path></g></g><mask></mask><g stroke-linecap="round"><g stroke-opacity="0.7" fill-opacity="0.7" transform="translate(482.40025754797307 109.09833795258032) rotate(0 90.64260037293127 -29.323927702219635)"><path d="M0 0 C30.21 -9.77, 151.07 -48.87, 181.29 -58.65 M0 0 C30.21 -9.77, 151.07 -48.87, 181.29 -58.65" stroke="#364fc7" stroke-width="1" fill="none"></path></g><g stroke-opacity="0.7" fill-opacity="0.7" transform="translate(482.40025754797307 109.09833795258032) rotate(0 90.64260037293127 -29.323927702219635)"><path d="M157.62 -40.21 C167.04 -47.55, 176.46 -54.89, 181.29 -58.65 M157.62 -40.21 C162.6 -44.09, 167.58 -47.97, 181.29 -58.65" stroke="#364fc7" stroke-width="1" fill="none"></path></g><g stroke-opacity="0.7" fill-opacity="0.7" transform="translate(482.40025754797307 109.09833795258032) rotate(0 90.64260037293127 -29.323927702219635)"><path d="M151.3 -59.73 C163.24 -59.3, 175.17 -58.87, 181.29 -58.65 M151.3 -59.73 C157.61 -59.5, 163.92 -59.28, 181.29 -58.65" stroke="#364fc7" stroke-width="1" fill="none"></path></g></g><mask></mask><g stroke-linecap="round"><g stroke-opacity="0.7" fill-opacity="0.7" transform="translate(652.056962023554 84.66824786850225) rotate(0 -85.15730603950271 26.94942704771313)"><path d="M0 0 C-28.39 8.98, -141.93 44.92, -170.31 53.9 M0 0 C-28.39 8.98, -141.93 44.92, -170.31 53.9" stroke="#364fc7" stroke-width="1" fill="none"></path></g><g stroke-opacity="0.7" fill-opacity="0.7" transform="translate(652.056962023554 84.66824786850225) rotate(0 -85.15730603950271 26.94942704771313)"><path d="M-146.53 35.61 C-151.44 39.38, -156.35 43.16, -170.31 53.9 M-146.53 35.61 C-151.66 39.56, -156.79 43.5, -170.31 53.9" stroke="#364fc7" stroke-width="1" fill="none"></path></g><g stroke-opacity="0.7" fill-opacity="0.7" transform="translate(652.056962023554 84.66824786850225) rotate(0 -85.15730603950271 26.94942704771313)"><path d="M-140.34 55.18 C-146.53 54.91, -152.71 54.65, -170.31 53.9 M-140.34 55.18 C-146.81 54.9, -153.27 54.62, -170.31 53.9" stroke="#364fc7" stroke-width="1" fill="none"></path></g></g><mask></mask><g stroke-linecap="round"><g stroke-opacity="0.7" fill-opacity="0.7" transform="translate(494.0000305175781 99.64997863769531) rotate(0 0 0)"><path d="M0 0 C0 0, 0 0, 0 0 M0 0 C0 0, 0 0, 0 0" stroke="#364fc7" stroke-width="1" fill="none"></path></g><g stroke-opacity="0.7" fill-opacity="0.7" transform="translate(494.0000305175781 99.64997863769531) rotate(0 0 0)"><path d="MNaN NaN CNaN NaN, NaN NaN, NaN NaN MNaN NaN CNaN NaN, NaN NaN, NaN NaN" stroke="#364fc7" stroke-width="1" fill="none"></path></g><g stroke-opacity="0.7" fill-opacity="0.7" transform="translate(494.0000305175781 99.64997863769531) rotate(0 0 0)"><path d="MNaN NaN CNaN NaN, NaN NaN, NaN NaN MNaN NaN CNaN NaN, NaN NaN, NaN NaN" stroke="#364fc7" stroke-width="1" fill="none"></path></g></g><mask></mask><g stroke-linecap="round"><g stroke-opacity="0.7" fill-opacity="0.7" transform="translate(483.52649463501984 156.43073253782723) rotate(0 124.17650853061423 7.931289017814038)"><path d="M0 0 C41.39 2.64, 206.96 13.22, 248.35 15.86 M0 0 C41.39 2.64, 206.96 13.22, 248.35 15.86" stroke="#364fc7" stroke-width="1" fill="none"></path></g><g stroke-opacity="0.7" fill-opacity="0.7" transform="translate(483.52649463501984 156.43073253782723) rotate(0 124.17650853061423 7.931289017814038)"><path d="M219.57 24.31 C226.57 22.25, 233.56 20.2, 248.35 15.86 M219.57 24.31 C228.56 21.67, 237.55 19.03, 248.35 15.86" stroke="#364fc7" stroke-width="1" fill="none"></path></g><g stroke-opacity="0.7" fill-opacity="0.7" transform="translate(483.52649463501984 156.43073253782723) rotate(0 124.17650853061423 7.931289017814038)"><path d="M220.87 3.83 C227.56 6.75, 234.24 9.68, 248.35 15.86 M220.87 3.83 C229.46 7.59, 238.04 11.35, 248.35 15.86" stroke="#364fc7" stroke-width="1" fill="none"></path></g></g><mask></mask><g stroke-linecap="round"><g stroke-opacity="0.7" fill-opacity="0.7" transform="translate(731.6000671386719 208.47918228573303) rotate(0 -124.4000244140625 -13.214604875776786)"><path d="M0 0 C-41.47 -4.4, -207.33 -22.02, -248.8 -26.43 M0 0 C-41.47 -4.4, -207.33 -22.02, -248.8 -26.43" stroke="#364fc7" stroke-width="1" fill="none"></path></g><g stroke-opacity="0.7" fill-opacity="0.7" transform="translate(731.6000671386719 208.47918228573303) rotate(0 -124.4000244140625 -13.214604875776786)"><path d="M-219.68 -33.65 C-228.41 -31.49, -237.14 -29.32, -248.8 -26.43 M-219.68 -33.65 C-226.79 -31.89, -233.9 -30.13, -248.8 -26.43" stroke="#364fc7" stroke-width="1" fill="none"></path></g><g stroke-opacity="0.7" fill-opacity="0.7" transform="translate(731.6000671386719 208.47918228573303) rotate(0 -124.4000244140625 -13.214604875776786)"><path d="M-221.85 -13.25 C-229.93 -17.2, -238.01 -21.15, -248.8 -26.43 M-221.85 -13.25 C-228.43 -16.47, -235.01 -19.69, -248.8 -26.43" stroke="#364fc7" stroke-width="1" fill="none"></path></g></g><mask></mask><g stroke-linecap="round"><g stroke-opacity="0.7" fill-opacity="0.7" transform="translate(347.80740045120194 208.99407437762966) rotate(0 8.303963098238512 44.819118658977345)"><path d="M0 0 C2.77 14.94, 13.84 74.7, 16.61 89.64 M0 0 C2.77 14.94, 13.84 74.7, 16.61 89.64" stroke="#364fc7" stroke-width="1" fill="none"></path></g><g stroke-opacity="0.7" fill-opacity="0.7" transform="translate(347.80740045120194 208.99407437762966) rotate(0 8.303963098238512 44.819118658977345)"><path d="M1.38 63.79 C5.41 70.62, 9.43 77.45, 16.61 89.64 M1.38 63.79 C4.89 69.74, 8.39 75.69, 16.61 89.64" stroke="#364fc7" stroke-width="1" fill="none"></path></g><g stroke-opacity="0.7" fill-opacity="0.7" transform="translate(347.80740045120194 208.99407437762966) rotate(0 8.303963098238512 44.819118658977345)"><path d="M21.56 60.05 C20.25 67.87, 18.94 75.69, 16.61 89.64 M21.56 60.05 C20.42 66.86, 19.28 73.67, 16.61 89.64" stroke="#364fc7" stroke-width="1" fill="none"></path></g></g><mask></mask><g stroke-linecap="round"><g stroke-opacity="0.7" fill-opacity="0.7" transform="translate(374.0000305175781 302.0499725341797) rotate(0 0.399993896484375 -4)"><path d="M0 0 C0.13 -1.33, 0.67 -6.67, 0.8 -8 M0 0 C0.13 -1.33, 0.67 -6.67, 0.8 -8" stroke="#364fc7" stroke-width="1" fill="none"></path></g><g stroke-opacity="0.7" fill-opacity="0.7" transform="translate(374.0000305175781 302.0499725341797) rotate(0 0.399993896484375 -4)"><path d="M1.79 -4.1 C1.57 -4.96, 1.35 -5.83, 0.8 -8 M1.79 -4.1 C1.53 -5.12, 1.28 -6.13, 0.8 -8" stroke="#364fc7" stroke-width="1" fill="none"></path></g><g stroke-opacity="0.7" fill-opacity="0.7" transform="translate(374.0000305175781 302.0499725341797) rotate(0 0.399993896484375 -4)"><path d="M-0.94 -4.38 C-0.56 -5.18, -0.17 -5.98, 0.8 -8 M-0.94 -4.38 C-0.49 -5.32, -0.04 -6.26, 0.8 -8" stroke="#364fc7" stroke-width="1" fill="none"></path></g></g><mask></mask><g stroke-linecap="round"><g stroke-opacity="0.7" fill-opacity="0.7" transform="translate(460.5609818501134 198.37644340587462) rotate(0 128.31517979350372 44.61194110241274)"><path d="M0 0 C42.77 14.87, 213.86 74.35, 256.63 89.22 M0 0 C42.77 14.87, 213.86 74.35, 256.63 89.22" stroke="#364fc7" stroke-width="1" fill="none"></path></g><g stroke-opacity="0.7" fill-opacity="0.7" transform="translate(460.5609818501134 198.37644340587462) rotate(0 128.31517979350372 44.61194110241274)"><path d="M226.63 89.66 C233.47 89.56, 240.3 89.46, 256.63 89.22 M226.63 89.66 C234.67 89.54, 242.72 89.43, 256.63 89.22" stroke="#364fc7" stroke-width="1" fill="none"></path></g><g stroke-opacity="0.7" fill-opacity="0.7" transform="translate(460.5609818501134 198.37644340587462) rotate(0 128.31517979350372 44.61194110241274)"><path d="M233.37 70.27 C238.67 74.59, 243.97 78.91, 256.63 89.22 M233.37 70.27 C239.61 75.35, 245.84 80.43, 256.63 89.22" stroke="#364fc7" stroke-width="1" fill="none"></path></g></g><mask></mask><g stroke-linecap="round"><g stroke-opacity="0.7" fill-opacity="0.7" transform="translate(697.9764542497114 311.62130965367965) rotate(0 -141.34088942676283 -55.01067518217849)"><path d="M0 0 C-47.11 -18.34, -235.57 -91.68, -282.68 -110.02 M0 0 C-47.11 -18.34, -235.57 -91.68, -282.68 -110.02" stroke="#364fc7" stroke-width="1" fill="none"></path></g><g stroke-opacity="0.7" fill-opacity="0.7" transform="translate(697.9764542497114 311.62130965367965) rotate(0 -141.34088942676283 -55.01067518217849)"><path d="M-252.69 -109.36 C-260.37 -109.53, -268.05 -109.7, -282.68 -110.02 M-252.69 -109.36 C-261.1 -109.54, -269.5 -109.73, -282.68 -110.02" stroke="#364fc7" stroke-width="1" fill="none"></path></g><g stroke-opacity="0.7" fill-opacity="0.7" transform="translate(697.9764542497114 311.62130965367965) rotate(0 -141.34088942676283 -55.01067518217849)"><path d="M-260.13 -90.23 C-265.91 -95.3, -271.68 -100.37, -282.68 -110.02 M-260.13 -90.23 C-266.45 -95.78, -272.77 -101.33, -282.68 -110.02" stroke="#364fc7" stroke-width="1" fill="none"></path></g></g><mask></mask><g stroke-opacity="0.7" fill-opacity="0.7" transform="translate(327.65000915527344 10) rotate(0 33.66997528076172 12.5)"><text x="0" y="0" font-family="Virgil, Segoe UI Emoji" font-size="20px" fill="#364fc7" text-anchor="start" style="white-space: pre;" direction="ltr" dominant-baseline="text-before-edge">Running</text></g><g stroke-linecap="round"><g stroke-opacity="0.7" fill-opacity="0.7" transform="translate(335.6500701904297 129.59999084472656) rotate(0 0 0)"><path d="M0 0 C0 0, 0 0, 0 0 M0 0 C0 0, 0 0, 0 0" stroke="#364fc7" stroke-width="1" fill="none"></path></g></g><mask></mask><g stroke-linecap="round"><g stroke-opacity="0.5" fill-opacity="0.5" transform="translate(297.2500457763672 111.19999694824219) rotate(0 18.399993896484375 -40.00000762939453)"><path d="M0 0 C6.13 -13.33, 30.67 -66.67, 36.8 -80 M0 0 C6.13 -13.33, 30.67 -66.67, 36.8 -80" stroke="#364fc7" stroke-width="1" fill="none"></path></g><g stroke-opacity="0.5" fill-opacity="0.5" transform="translate(297.2500457763672 111.19999694824219) rotate(0 18.399993896484375 -40.00000762939453)"><path d="M34.34 -50.1 C35.09 -59.24, 35.84 -68.39, 36.8 -80 M34.34 -50.1 C34.91 -57.08, 35.49 -64.07, 36.8 -80" stroke="#364fc7" stroke-width="1" fill="none"></path></g><g stroke-opacity="0.5" fill-opacity="0.5" transform="translate(297.2500457763672 111.19999694824219) rotate(0 18.399993896484375 -40.00000762939453)"><path d="M15.7 -58.68 C22.15 -65.2, 28.6 -71.72, 36.8 -80 M15.7 -58.68 C20.63 -63.66, 25.55 -68.64, 36.8 -80" stroke="#364fc7" stroke-width="1" fill="none"></path></g></g><mask></mask><g stroke-linecap="round"><g stroke-opacity="0.5" fill-opacity="0.5" transform="translate(377.2500457763672 39.199981689453125) rotate(0 -15.20001220703125 36.400001525878906)"><path d="M0 0 C-5.07 12.13, -25.33 60.67, -30.4 72.8 M0 0 C-5.07 12.13, -25.33 60.67, -30.4 72.8" stroke="#364fc7" stroke-width="1" fill="none"></path></g><g stroke-opacity="0.5" fill-opacity="0.5" transform="translate(377.2500457763672 39.199981689453125) rotate(0 -15.20001220703125 36.400001525878906)"><path d="M-29.01 42.83 C-29.4 51.34, -29.8 59.84, -30.4 72.8 M-29.01 42.83 C-29.4 51.37, -29.8 59.91, -30.4 72.8" stroke="#364fc7" stroke-width="1" fill="none"></path></g><g stroke-opacity="0.5" fill-opacity="0.5" transform="translate(377.2500457763672 39.199981689453125) rotate(0 -15.20001220703125 36.400001525878906)"><path d="M-10.07 50.74 C-15.84 57, -21.61 63.26, -30.4 72.8 M-10.07 50.74 C-15.86 57.02, -21.65 63.31, -30.4 72.8" stroke="#364fc7" stroke-width="1" fill="none"></path></g></g><mask></mask></svg>